<svg width="82" height="104" viewBox="0 0 82 104" fill="none" xmlns="http://www.w3.org/2000/svg">
<mask id="mask0_1_240" style="mask-type:luminance" maskUnits="userSpaceOnUse" x="8" y="20" width="27" height="67">
<path d="M8.08105 20.8291H34.3933V86.7104H8.08105V20.8291Z" fill="white"/>
</mask>
<g mask="url(#mask0_1_240)">
<mask id="mask1_1_240" style="mask-type:luminance" maskUnits="userSpaceOnUse" x="7" y="20" width="28" height="67">
<path d="M34.6078 20.7999H7.69051V86.9333H34.6078V20.7999Z" fill="white"/>
</mask>
<g mask="url(#mask1_1_240)">
<mask id="mask2_1_240" style="mask-type:luminance" maskUnits="userSpaceOnUse" x="8" y="20" width="27" height="67">
<path d="M8.08105 20.8291H34.3933V86.7104H8.08105V20.8291Z" fill="white"/>
</mask>
<g mask="url(#mask2_1_240)">
<path d="M8.08105 20.8291H34.3933V86.6895H8.08105V20.8291Z" fill="#0D0D0D"/>
</g>
</g>
</g>
<mask id="mask3_1_240" style="mask-type:luminance" maskUnits="userSpaceOnUse" x="21" y="0" width="61" height="104">
<path d="M81.851 0H21.9736V103.467H81.851V0Z" fill="white"/>
</mask>
<g mask="url(#mask3_1_240)">
<path d="M58.9739 86.8085C54.384 86.8085 50.2017 86.0751 46.4251 84.6085C42.6527 83.1418 39.4146 81.0064 36.7087 78.2001C34.0071 75.3897 31.9149 71.9251 30.4343 67.8085C28.958 63.6876 28.2198 58.9668 28.2198 53.6501C28.2198 48.3397 29.0524 43.6251 30.7176 39.5085C32.387 35.3876 34.6359 31.923 37.4641 29.1168C40.2966 26.3064 43.5969 24.1668 47.3692 22.7001C51.1459 21.2335 55.1715 20.5001 59.446 20.5001C62.1519 20.5001 64.5895 20.6835 66.759 21.0501C68.9263 21.4168 70.8125 21.846 72.4154 22.3335C74.0162 22.823 75.3209 23.3126 76.3294 23.8001C77.3358 24.2897 78.0289 24.6564 78.4066 24.9001L75.7629 32.2251C75.1964 31.8585 74.3767 31.4626 73.3081 31.0335C72.2437 30.6064 71.0335 30.1793 69.6773 29.7501C68.3254 29.323 66.8491 28.973 65.2483 28.7001C63.6454 28.423 62.0253 28.2835 60.3901 28.2835C56.9332 28.2835 53.8196 28.8647 51.0515 30.0251C48.2812 31.1876 45.9208 32.8668 43.9702 35.0668C42.024 37.2626 40.5305 39.9314 39.4897 43.0751C38.4533 46.221 37.9361 49.746 37.9361 53.6501C37.9361 57.4397 38.3911 60.8918 39.3009 64.0085C40.215 67.121 41.5862 69.7897 43.4123 72.0168C45.2363 74.246 47.5173 75.971 50.2532 77.1918C52.987 78.4147 56.1779 79.0251 59.8236 79.0251C64.0338 79.0251 67.525 78.598 70.2953 77.7418C73.0634 76.8876 75.1385 76.1231 76.5182 75.4501L78.8786 82.7751C78.4366 83.0814 77.6512 83.4647 76.5182 83.9251C75.3852 84.3814 73.969 84.8231 72.2695 85.2501C70.5743 85.6772 68.5958 86.0439 66.3298 86.3501C64.0681 86.6543 61.6176 86.8085 58.9739 86.8085Z" fill="#0D0D0D"/>
</g>
<mask id="mask4_1_240" style="mask-type:luminance" maskUnits="userSpaceOnUse" x="0" y="0" width="69" height="104">
<path d="M68.6667 0H0V103.467H68.6667V0Z" fill="white"/>
</mask>
<g mask="url(#mask4_1_240)">
<path d="M66.0863 53.6522C66.0863 59.6105 65.1121 64.8314 63.1658 69.3189C61.1895 73.8793 58.3828 77.6647 54.7499 80.673C51.1663 83.6397 46.9069 85.8501 41.9714 87.3001C37.1712 88.7126 31.9246 89.4168 26.2296 89.4168C23.5065 89.4168 20.5152 89.3085 17.2579 89.0897C13.8825 88.8605 10.8075 88.4189 8.03293 87.7626L5.33347 87.123V20.1814L8.03293 19.5418C10.8075 18.8855 13.8825 18.4439 17.2579 18.2168C20.5152 17.998 23.5065 17.8876 26.2296 17.8876C31.9246 17.8876 37.1712 18.5939 41.9714 20.0043C46.9069 21.4564 51.1663 23.6647 54.7499 26.6314C58.3828 29.6397 61.1895 33.4251 63.1658 37.9855C65.1121 42.473 66.0863 47.696 66.0863 53.6522ZM59.0094 53.6522C59.0094 48.6189 58.2218 44.2855 56.6468 40.6522C55.1018 37.0918 52.9388 34.1605 50.1578 31.8585C47.3253 29.5126 43.9134 27.7522 39.92 26.5793C35.7893 25.3647 31.2251 24.7564 26.2296 24.7564C23.6696 24.7564 20.8414 24.8605 17.7471 25.0689C14.773 25.2689 12.0928 25.6522 9.70883 26.2168L8.87195 22.8793H12.4083V84.4251H8.87195L9.70883 81.0897C12.0928 81.6543 14.773 82.0355 17.7471 82.2355C20.8414 82.4439 23.6696 82.548 26.2296 82.548C31.2251 82.548 35.7893 81.9418 39.92 80.7272C43.9134 79.5522 47.3253 77.7939 50.1578 75.448C52.9388 73.1439 55.1018 70.2126 56.6468 66.6543C58.2218 63.0189 59.0094 58.6855 59.0094 53.6522ZM26.9828 74.7626C34.6606 74.7626 40.2891 72.9605 43.8705 69.3564C47.4862 65.7168 49.293 60.4835 49.293 53.6522C49.293 46.823 47.4862 41.5876 43.8705 37.948C40.2891 34.3439 34.6606 32.5418 26.9828 32.5418C24.4571 32.5418 22.513 32.571 21.1504 32.6293C19.8136 32.6876 18.9016 32.7439 18.4123 32.796L18.0218 29.3814H21.5603V77.923H18.0218L18.4123 74.5105C18.9016 74.5626 19.8136 74.6168 21.1504 74.6751C22.513 74.7335 24.4571 74.7626 26.9828 74.7626ZM26.9828 81.6335C24.352 81.6335 22.3027 81.6001 20.8371 81.5376C19.3436 81.473 18.275 81.4064 17.6312 81.3376L14.4833 80.998V26.3085L17.6312 25.9689C18.275 25.898 19.3436 25.8314 20.8371 25.7668C22.3027 25.7043 24.352 25.673 26.9828 25.673C36.6648 25.673 43.9907 28.1751 48.9626 33.1793C53.9001 38.1501 56.37 44.973 56.37 53.6522C56.37 62.3314 53.9001 69.1564 48.9626 74.1251C43.9907 79.1293 36.6648 81.6335 26.9828 81.6335Z" fill="#0D0D0D"/>
<path d="M62.5414 53.6501C62.5414 59.1501 61.6595 63.9314 59.8977 67.9918C58.1403 72.0481 55.6576 75.4043 52.4474 78.0585C49.2415 80.7147 45.4048 82.7001 40.9371 84.0168C36.4738 85.3293 31.5684 85.9835 26.2253 85.9835C23.5859 85.9835 20.6805 85.8751 17.5046 85.6585C14.3288 85.446 11.4491 85.0376 8.8698 84.4251V22.8835C11.4491 22.273 14.3288 21.8626 17.5046 21.6501C20.6805 21.4335 23.5859 21.3251 26.2253 21.3251C31.5684 21.3251 36.4738 21.9835 40.9371 23.3001C45.4048 24.6126 49.2415 26.596 52.4474 29.2501C55.6576 31.9064 58.1403 35.2647 59.8977 39.3251C61.6595 43.3814 62.5414 48.1564 62.5414 53.6501ZM26.9806 78.2001C35.6605 78.2001 42.1388 76.0481 46.4133 71.7418C50.6878 67.4376 52.8251 61.4064 52.8251 53.6501C52.8251 45.9001 50.6878 39.873 46.4133 35.5668C42.1388 31.2626 35.6605 29.1085 26.9806 29.1085C24.4056 29.1085 22.4079 29.1397 20.9895 29.2001C19.5754 29.2626 18.5861 29.323 18.0196 29.3835V77.9251C18.5861 77.9876 19.5754 78.0481 20.9895 78.1085C22.4079 78.171 24.4056 78.2001 26.9806 78.2001Z" fill="white"/>
</g>
</svg>
